{"title":"My Little Pony The Movie 2017 1080p BluRay 6CH AAC x264 - EiE","magnet":"magnet:?xt=urn:btih:5c3d4dcedf13a9cf465105b40177f7dc5021f8da&dn=My+Little+Pony+The+Movie+2017+1080p+BluRay+6CH+AAC+x264+-+EiE&tr=udp%3A%2F%2Ftracker.leechers-paradise.org%3A6969&tr=udp%3A%2F%2Fzer0day.ch%3A1337&tr=udp%3A%2F%2Fopen.demonii.com%3A1337&tr=udp%3A%2F%2Ftracker.coppersurfer.tk%3A6969&tr=udp%3A%2F%2Fexodus.desync.com%3A6969","uploader":"samcode4u","categoryP":"video","categoryS":"hd___movies","size":"1610971421","seeders":"0","leechers":"0","description":"My Little Pony The Movie 2017 1080p BluRay 6CH AAC x264 - EiE\r\n <a href=\"\nhttps://www.imdb.com/title/tt4131800/\" rel=\"nofollow\" target=\"_NEW\">\nhttps://www.imdb.com/title/tt4131800/</a>\r\n\r\n\r\nScreenshots:\r\n <a href=\"\nhttps://lensdump.com/i/l6XNC\" rel=\"nofollow\" target=\"_NEW\">\nhttps://lensdump.com/i/l6XNC</a>\r\n <a href=\"\nhttps://lensdump.com/i/l6wW5\" rel=\"nofollow\" target=\"_NEW\">\nhttps://lensdump.com/i/l6wW5</a>\r\n <a href=\"\nhttps://lensdump.com/i/l6x9z\" rel=\"nofollow\" target=\"_NEW\">\nhttps://lensdump.com/i/l6x9z</a>\r\n <a href=\"\nhttps://lensdump.com/i/l6yLT\" rel=\"nofollow\" target=\"_NEW\">\nhttps://lensdump.com/i/l6yLT</a>\r\n\r\n\r\n\r\nVideo\r\nID                                       : 1\r\nFormat                                   : AVC\r\nFormat/Info                              : Advanced Video Codec\r\nFormat settings                          : CABAC / 4 Ref Frames\r\nFormat settings, CABAC                   : Yes\r\nFormat settings, RefFrames               : 4 frames\r\nCodec ID                                 : avc1\r\nCodec ID/Info                            : Advanced Video Coding\r\nDuration                                 : 1 h 39 min\r\nBit rate                                 : 1 900 kb/s\r\nMaximum bit rate                         : 10.1 Mb/s\r\nWidth                                    : 1 912 pixels\r\nHeight                                   : 800 pixels\r\nDisplay aspect ratio                     : 2.40:1\r\nFrame rate mode                          : Constant\r\nFrame rate                               : 23.976\r\nColor space                              : YUV\r\nChroma subsampling                       : 4:2:0\r\nBit depth                                : 8 bits\r\nScan type                                : Progressive\r\nBits/(Pixel*Frame)                       : 0.052\r\nStream size                              : 1.32 GiB (88%)\r\n\r\nAudio\r\nID                                       : 2\r\nFormat                                   : AAC\r\nFormat/Info                              : Advanced Audio Codec\r\nFormat profile                           : LC\r\nCodec ID                                 : mp4a-40-2\r\nDuration                                 : 1 h 39 min\r\nBit rate mode                            : Variable\r\nBit rate                                 : 265 kb/s\r\nMaximum bit rate                         : 326 kb/s\r\nChannel(s)                               : 6 channels\r\nChannel positions                        : Front: L C R, Side: L R, LFE\r\nSampling rate                            : 48.0 kHz\r\nCompression mode                         : Lossy\r\nStream size                              : 184 MiB (12%)\r\nLanguage                                 : English","last_updated":"2018-01-01T12:00:28.911Z","parsed":{"xt":"urn:btih:5c3d4dcedf13a9cf465105b40177f7dc5021f8da","dn":"My Little Pony The Movie 2017 1080p BluRay 6CH AAC x264 - EiE","tr":["udp://exodus.desync.com:6969","udp://open.demonii.com:1337","udp://tracker.coppersurfer.tk:6969","udp://tracker.leechers-paradise.org:6969","udp://zer0day.ch:1337"],"infoHash":"5c3d4dcedf13a9cf465105b40177f7dc5021f8da","infoHashBuffer":{"type":"Buffer","data":[92,61,77,206,223,19,169,207,70,81,5,180,1,119,247,220,80,33,248,218]},"name":"My Little Pony The Movie 2017 1080p BluRay 6CH AAC x264 - EiE","announce":["udp://exodus.desync.com:6969","udp://open.demonii.com:1337","udp://tracker.coppersurfer.tk:6969","udp://tracker.leechers-paradise.org:6969","udp://zer0day.ch:1337"],"urlList":[]}}